# xmcd
#
# Track frame offsets:
#	150
#	15150
#	38400
#	50775
#	63225
#	70500
#	82125
#	97200
#	116400
#	128625
#	145800
#	162600
#
# Disc length: 2308 seconds
#
# Revision: 0
# Processed by: cddbd v1.4PL0 Copyright (c) Steve Scherf et al.
# Submitted via: dBpowerAMP V4.0
#
DISCID=9d09020c
DTITLE=Brecht Bertold - Maria Farandouri sings Bertold Brecht
DYEAR=1900
DGENRE=Ballad
TTITLE0=H ballada tou nekrou stratioth 
TTITLE1=H ballada twn peiratwn
TTITLE2=To parapono tou alogou
TTITLE3=H ballada tou Solomwnta
TTITLE4=To tragoudi tou moldava
TTITLE5=To tragoudi tis allhleggyhs
TTITLE6=O Mak o Maxairobgalths
TTITLE7=Sourabaja Johny
TTITLE8=To tragoudi ths gynaikas tou nazista fantarou
TTITLE9=H tzeni twn peiratwn
TTITLE10=Alabama song
TTITLE11=To tragoudi ths enothtas
EXTD=music by - kurt weil, x.aisler, b.brecht
EXTT0=
EXTT1=
EXTT2=
EXTT3=
EXTT4=
EXTT5=
EXTT6=
EXTT7=
EXTT8=
EXTT9=
EXTT10=
EXTT11=
PLAYORDER=
